<svg width="303" height="81" viewBox="0 0 303 81" fill="none" xmlns="http://www.w3.org/2000/svg">
<path d="M36.0151 71.5309C28.1769 58.4077 28.1031 33.4909 47.3788 23.2073C49.2235 22.2225 50.191 22.3538 51.2241 24.3071C60.3577 41.657 52.4867 64.2266 36.0151 71.5309Z" fill="white"/>
<path d="M30.0053 71.5638C18.1825 69.3232 8.94231 63.964 3.7524 53.2701C-1.01117 43.4544 -1.09317 33.2529 2.67833 23.035C4.30171 18.6278 6.20387 17.4213 10.8199 18.3323C14.083 18.9725 17.2724 19.9984 21.0193 20.9832C11.5414 40.3685 14.3044 57.0864 30.0135 71.5638H30.0053Z" fill="white"/>
<path d="M41.6724 71.2191C57.9636 57.4065 60.9644 40.8363 51.2487 20.9011C55.7991 19.9409 60.0215 18.6934 64.326 18.3405C65.769 18.2256 68.1548 20.0476 68.8354 21.5659C77.7394 41.4354 69.2781 66.8693 42.8202 71.8346C42.6234 71.8674 42.3775 71.6048 41.6724 71.2191Z" fill="white"/>
<path d="M31.7845 69.5449C26.0043 65.9502 22.9707 61.5676 21.0275 56.4955C17.1986 46.4993 16.6001 36.3799 20.7324 26.2687C22.3885 22.2226 23.8643 21.9107 27.3161 24.8078C27.9392 25.3331 28.6361 25.7516 29.2674 26.2605C34.6623 30.6349 35.0805 31.9891 32.0469 38.3742C27.8244 47.2872 28.4475 56.3314 30.8662 65.4906C31.1204 66.4508 31.3089 67.4275 31.7845 69.5367V69.5449Z" fill="white"/>
<path d="M15.4851 16.4037C20.7898 9.62459 27.0865 4.17506 34.6787 0.309501C35.7938 -0.256791 37.7861 0.0140394 38.9832 0.637782C46.2146 4.39665 51.6095 10.2319 56.824 16.3955C51.8555 19.8015 50.2895 19.6619 46.6081 15.8046C36.9498 5.69339 35.4084 5.67695 25.9551 15.6076C22.0442 19.7194 21.1751 19.8014 15.4769 16.4037H15.4851Z" fill="white"/>
<path d="M35.638 29.9537C31.9731 26.7775 28.3082 23.6096 23.9545 19.8343C27.4965 16.8797 30.7514 13.8841 34.3343 11.3645C35.3264 10.6669 37.7287 10.8064 38.7454 11.5615C42.0659 14.0319 45.0503 16.9618 48.2889 19.8261C43.6811 23.5111 39.721 26.6708 35.6298 29.9455L35.638 29.9537Z" fill="white"/>
<path d="M21.1669 71.5967C31.2679 74.6661 41.0082 74.5513 51.0027 71.6788C43.6811 84.1126 29.3576 84.129 21.1669 71.5967Z" fill="white"/>
<path d="M85.7354 4.28577H118.06C130.976 4.28577 140.68 7.67862 147.174 14.4643C153.667 21.1786 156.914 30.2858 156.914 41.7858C156.914 53.2858 153.667 62.4286 147.174 69.2143C140.68 75.9286 130.976 79.2858 118.06 79.2858H85.7354V4.28577ZM117.418 58.5001C126.837 58.5001 131.547 52.9286 131.547 41.7858C131.547 30.6429 126.837 25.0715 117.418 25.0715H110.461V58.5001H117.418Z" fill="white"/>
<path d="M182.404 79.2858H159.819V27.8572H182.404V79.2858Z" fill="white"/>
<path d="M206.697 33.0001C211.264 28.4286 216.509 26.1429 222.432 26.1429C229.068 26.1429 234.027 28.1072 237.309 32.0358C240.663 35.8929 242.34 40.5715 242.34 46.0715V79.2858H219.756V49.9286C219.756 46.6429 218.114 45.0001 214.832 45.0001C212.691 45.0001 210.907 45.8572 209.48 47.5715V79.2858H186.896V27.8572H206.697V33.0001Z" fill="white"/>
<path d="M297.969 63.0001C297.969 64.8572 298.968 65.7858 300.966 65.7858C301.466 65.7858 302.144 65.7143 303 65.5715V78.7501C299.932 80.0358 296.15 80.6786 291.654 80.6786C285.66 80.6786 281.379 78.8572 278.81 75.2143C274.1 79.0715 268.392 81.0001 261.684 81.0001C256.618 81.0001 252.372 79.6429 248.947 76.9286C245.522 74.2143 243.809 70.3929 243.809 65.4643C243.809 62.3215 244.452 59.6429 245.736 57.4286C247.092 55.1429 248.911 53.3929 251.195 52.1786C253.478 50.9643 255.869 50.1072 258.366 49.6072C260.864 49.0358 263.54 48.7501 266.394 48.7501C270.176 48.7501 273.565 49.0715 276.562 49.7143V48.5358C276.562 44.7501 273.173 42.8572 266.394 42.8572C260.685 42.8572 254.513 44.0715 247.877 46.5001V29.5715C255.512 27.2858 262.541 26.1429 268.963 26.1429C278.525 26.1429 285.732 27.9643 290.584 31.6072C295.508 35.1786 297.969 41.6786 297.969 51.1072V63.0001ZM272.067 59.0358C270.283 59.0358 268.749 59.4286 267.464 60.2144C266.251 60.9286 265.645 62.0715 265.645 63.6429C265.645 64.8572 266.108 65.8572 267.036 66.6429C268.035 67.3572 269.248 67.7143 270.675 67.7143C272.816 67.7143 274.778 67.1429 276.562 66.0001V59.6786C275.421 59.2501 273.922 59.0358 272.067 59.0358Z" fill="white"/>
</svg>
