<svg width="73" height="73" viewBox="0 0 73 73" fill="none" xmlns="http://www.w3.org/2000/svg">
<rect x="3" y="3" width="58" height="58" stroke="white" stroke-width="6"/>
<rect x="3" y="3" width="58" height="21" stroke="white" stroke-width="6"/>
<path d="M4.68018 58.9999V42.1999H14.3522C15.4082 42.1999 16.3362 42.3999 17.1362 42.7999C17.9362 43.1999 18.5522 43.7599 18.9842 44.4799C19.4322 45.1999 19.6562 46.0319 19.6562 46.9759C19.6562 47.7919 19.4402 48.5199 19.0082 49.1599C18.5922 49.7839 18.1282 50.2239 17.6162 50.4799V50.5999C18.2082 50.8559 18.7442 51.3199 19.2242 51.9919C19.7202 52.6479 19.9682 53.3919 19.9682 54.2239C19.9682 55.1679 19.7522 55.9999 19.3202 56.7199C18.8882 57.4399 18.2722 57.9999 17.4722 58.3999C16.6722 58.7999 15.7442 58.9999 14.6882 58.9999H4.68018ZM13.6322 48.9439C14.2402 48.9439 14.7042 48.7999 15.0242 48.5119C15.3602 48.2079 15.5282 47.8079 15.5282 47.3119C15.5282 46.8159 15.3602 46.4239 15.0242 46.1359C14.7042 45.8479 14.2402 45.7039 13.6322 45.7039H8.80818V48.9439H13.6322ZM13.9922 55.4959C14.5682 55.4959 15.0162 55.3519 15.3362 55.0639C15.6722 54.7599 15.8402 54.3679 15.8402 53.8879C15.8402 53.3919 15.6722 52.9999 15.3362 52.7119C15.0162 52.4079 14.5682 52.2559 13.9922 52.2559H8.80818V55.4959H13.9922Z" fill="white"/>
<path d="M31.5562 59.3119C29.8122 59.3119 28.2202 58.9519 26.7802 58.2319C25.3402 57.4959 24.2042 56.4719 23.3722 55.1599C22.5402 53.8319 22.1242 52.3119 22.1242 50.5999C22.1242 48.8879 22.5402 47.3759 23.3722 46.0639C24.2042 44.7359 25.3402 43.7119 26.7802 42.9919C28.2202 42.2559 29.8122 41.8879 31.5562 41.8879C33.3002 41.8879 34.8922 42.2559 36.3322 42.9919C37.7722 43.7119 38.9082 44.7359 39.7402 46.0639C40.5722 47.3759 40.9882 48.8879 40.9882 50.5999C40.9882 52.3119 40.5722 53.8319 39.7402 55.1599C38.9082 56.4719 37.7722 57.4959 36.3322 58.2319C34.8922 58.9519 33.3002 59.3119 31.5562 59.3119ZM31.5562 55.5919C32.5482 55.5919 33.4442 55.3839 34.2442 54.9679C35.0602 54.5519 35.7002 53.9679 36.1642 53.2159C36.6282 52.4639 36.8602 51.5919 36.8602 50.5999C36.8602 49.6079 36.6282 48.7359 36.1642 47.9839C35.7002 47.2319 35.0602 46.6479 34.2442 46.2319C33.4442 45.8159 32.5482 45.6079 31.5562 45.6079C30.5642 45.6079 29.6602 45.8159 28.8442 46.2319C28.0442 46.6479 27.4122 47.2319 26.9482 47.9839C26.4842 48.7359 26.2522 49.6079 26.2522 50.5999C26.2522 51.5919 26.4842 52.4639 26.9482 53.2159C27.4122 53.9679 28.0442 54.5519 28.8442 54.9679C29.6602 55.3839 30.5642 55.5919 31.5562 55.5919Z" fill="white"/>
<path d="M45.9872 58.9999H40.9952L47.2592 50.3599L41.4272 42.1999H46.3472L49.8992 47.2399H50.4752L54.0272 42.1999H58.9472L53.1152 50.3599L59.3792 58.9999H54.3872L50.4752 53.5519H49.8992L45.9872 58.9999Z" fill="white"/>
<path d="M70.9563 63.9722H70.7107L70.5052 63.4806H69.451L69.2455 63.9722H69L69.8167 62.0278H70.1396L70.9563 63.9722ZM69.9501 62.2778L69.5418 63.2583H70.4145L70.0062 62.2778H69.9501Z" fill="white" fill-opacity="0.25"/>
<path d="M72.1193 62.9667H73V63.9722H72.8185L72.7918 63.6861H72.7758C72.7029 63.775 72.6059 63.85 72.4849 63.9111C72.3639 63.9704 72.2171 64 72.0446 64C71.8666 64 71.7012 63.9583 71.5481 63.875C71.3969 63.7917 71.2759 63.6741 71.1852 63.5222C71.0944 63.3685 71.0491 63.1944 71.0491 63C71.0491 62.8056 71.0944 62.6324 71.1852 62.4806C71.2759 62.3269 71.3978 62.2083 71.5508 62.125C71.7056 62.0417 71.8737 62 72.0552 62C72.1958 62 72.3292 62.0259 72.4556 62.0778C72.5837 62.1278 72.694 62.1991 72.7865 62.2917C72.879 62.3843 72.9457 62.4907 72.9867 62.6111H72.7411C72.6682 62.487 72.5721 62.3917 72.4529 62.325C72.3337 62.2565 72.2011 62.2222 72.0552 62.2222C71.9129 62.2222 71.7821 62.2546 71.6629 62.3194C71.5455 62.3843 71.4512 62.4759 71.38 62.5944C71.3106 62.713 71.2759 62.8481 71.2759 63C71.2759 63.1519 71.3106 63.287 71.38 63.4056C71.4494 63.5241 71.5428 63.6157 71.6602 63.6806C71.7777 63.7454 71.9058 63.7778 72.0446 63.7778C72.1816 63.7778 72.3052 63.75 72.4155 63.6944C72.5258 63.6389 72.613 63.5648 72.6771 63.4722C72.7411 63.3796 72.7731 63.2806 72.7731 63.175H72.1193V62.9667Z" fill="white" fill-opacity="0.25"/>
<path d="M2.34573 73C1.84605 73 1.42039 72.9311 1.06876 72.7934C0.717137 72.6511 0.451102 72.4536 0.270661 72.2011C0.0902204 71.9486 0 71.657 0 71.3264H1.17287C1.17287 71.5239 1.27234 71.6846 1.47129 71.8085C1.67023 71.9325 1.96172 71.9945 2.34573 71.9945C3.03973 71.9945 3.38674 71.8361 3.38674 71.5193C3.38674 71.3815 3.32659 71.2782 3.20629 71.2094C3.086 71.1359 2.88705 71.0762 2.60945 71.0303L1.63091 70.865C1.13585 70.787 0.76109 70.6377 0.506622 70.4174C0.252154 70.1924 0.124921 69.8802 0.124921 69.4807C0.124921 69.1915 0.208201 68.9366 0.374762 68.7163C0.541322 68.4913 0.784224 68.3168 1.10347 68.1928C1.42271 68.0643 1.80441 68 2.24857 68C2.73437 68 3.14846 68.0712 3.49084 68.2135C3.83321 68.3512 4.09231 68.5464 4.26812 68.7989C4.44856 69.0514 4.53878 69.343 4.53878 69.6736H3.36592C3.36592 69.4761 3.26876 69.3154 3.07443 69.1915C2.88011 69.0675 2.60483 69.0055 2.24857 69.0055C1.62859 69.0055 1.31861 69.1616 1.31861 69.4738C1.31861 69.6024 1.37413 69.7034 1.48517 69.7769C1.60083 69.8457 1.79053 69.9008 2.05425 69.9421L2.94951 70.0868C3.51397 70.174 3.92574 70.3324 4.18484 70.562C4.44856 70.7916 4.58042 71.1015 4.58042 71.4917C4.58042 71.9555 4.38841 72.3228 4.0044 72.5937C3.62038 72.8646 3.06749 73 2.34573 73Z" fill="white"/>
<path d="M14.0213 72.9105H12.5778L11.1759 68.0895H12.4598L13.2787 71.0165H13.4453L14.3336 68.0895H15.6383L16.5267 71.0165H16.6932L17.5121 68.0895H18.796L17.3942 72.9105H15.9506L15.0692 70.0179H14.9027L14.0213 72.9105Z" fill="white"/>
<path d="M29.4571 72.9105H25.5984V68.0895H29.4571V69.095H26.7921V69.9972H29.2905V70.989H26.7921V71.905H29.4571V72.9105Z" fill="white"/>
<path d="M36.5344 72.9105V68.0895H38.6025C39.1161 68.0895 39.5787 68.1928 39.9905 68.3994C40.4069 68.6015 40.7331 68.8861 40.9691 69.2534C41.2097 69.6162 41.33 70.0317 41.33 70.5C41.33 70.9683 41.2097 71.3861 40.9691 71.7534C40.7331 72.1162 40.4069 72.4008 39.9905 72.6074C39.5787 72.8095 39.1161 72.9105 38.6025 72.9105H36.5344ZM38.6164 71.8223C38.9125 71.8223 39.1739 71.7672 39.4006 71.657C39.632 71.5468 39.8124 71.393 39.9419 71.1956C40.0715 70.9936 40.1363 70.7617 40.1363 70.5C40.1363 70.2383 40.0715 70.0087 39.9419 69.8113C39.8124 69.6093 39.632 69.4532 39.4006 69.343C39.1739 69.2328 38.9125 69.1777 38.6164 69.1777H37.7281V71.8223H38.6164Z" fill="white"/>
<path d="M52.1965 72.9105H48.3379V68.0895H52.1965V69.095H49.5315V69.9972H52.03V70.989H49.5315V71.905H52.1965V72.9105Z" fill="white"/>
<path d="M60.4675 72.9105H59.2738V68.0895H60.7243L62.6397 71.1612H62.8063V68.0895H64V72.9105H62.5495L60.6341 69.8388H60.4675V72.9105Z" fill="white"/>
<path d="M11.2961 14.6857L12.6905 16H11.4417L10.1648 14.72H9.96324V16H9V12H11.1449C11.4212 12 11.6676 12.0571 11.8841 12.1714C12.1007 12.2857 12.2687 12.4476 12.3881 12.6571C12.5113 12.8667 12.5729 13.1086 12.5729 13.3829C12.5729 13.6381 12.5132 13.8648 12.3937 14.0629C12.278 14.261 12.1231 14.4152 11.9289 14.5257C11.7348 14.6324 11.5276 14.6857 11.3073 14.6857H11.2961ZM9.96324 13.8343H11.0945C11.2513 13.8343 11.3764 13.7924 11.4697 13.7086C11.563 13.621 11.6097 13.5048 11.6097 13.36C11.6097 13.2152 11.563 13.101 11.4697 13.0171C11.3764 12.9295 11.2513 12.8857 11.0945 12.8857H9.96324V13.8343Z" fill="white"/>
<path d="M21.4306 16H18.3169V12H21.4306V12.8343H19.2802V13.5829H21.2962V14.4057H19.2802V15.1657H21.4306V16Z" fill="white"/>
<path d="M29.1857 16H28.2225V12.9543H26.9176V12H30.4906V12.9543H29.1857V16Z" fill="white"/>
<path d="M39.7529 16H38.7225L38.4425 15.2571H36.5888L36.3088 16H35.2784L36.8632 12H38.1681L39.7529 16ZM37.4512 12.9943L36.9192 14.4H38.1121L37.58 12.9943H37.4512Z" fill="white"/>
<path d="M46.1207 16H45.1575V12H46.1207V16Z" fill="white"/>
<path d="M55 16H51.9423V12H52.9055V15.0457H55V16Z" fill="white"/>
</svg>
